ffmpeg started on 2025-04-30 at 18:46:20
Report written to "D:\Convert\FFMetrics\reports\psnr_report-6.txt"
Log level: 32
Command line:
ffmpeg -hide_banner -nostdin -i "G:\\\xc0\xed\xe8\xec\xe5\\\xce\xed\xe3\xee\xe8\xed\xe3\xe8\\!_35_\xcb\xe5\xf2\xee_2024\\JamClub\\\xcc\xee\xff \xf1\xfd\xec\xef\xe0\xe9 - \xef\xe0\xf0\xe5\xed\xfc\\JamClub_Senpai_wa_Otokonoko_09_1080p_HEVC.mkv" -i "G:\\\xc0\xed\xe8\xec\xe5\\\xce\xed\xe3\xee\xe8\xed\xe3\xe8\\!_35_\xcb\xe5\xf2\xee_2024\\JamClub\\\xcc\xee\xff \xf1\xfd\xec\xef\xe0\xe9 - \xef\xe0\xf0\xe5\xed\xfc\\JamClub_Senpai_wa_Otokonoko_09_1080p.mp4" -lavfi "[0:v]settb=AVTB,setpts=PTS-STARTPTS,format=pix_fmts=yuv420p10,fps=24000/1001,scale=1920:1080:flags=bicubic[main];[1:v]settb=AVTB,setpts=PTS-STARTPTS,format=pix_fmts=yuv420p,fps=24000/1001,scale=1920:1080:flags=bicubic[ref];[main][ref]psnr=eof_action=endall:stats_file='D\\:/Convert/FFMetrics/logs/psnr_logfile-6.txt'" -f null -
Input #0, matroska,webm, from 'G:\Аниме\Онгоинги\!_35_Лето_2024\JamClub\Моя сэмпай - парень\JamClub_Senpai_wa_Otokonoko_09_1080p_HEVC.mkv':
  Metadata:
    COMPATIBLE_BRANDS: isomiso2avc1mp41
    MAJOR_BRAND     : isom
    MINOR_VERSION   : 512
    ENCODER         : Lavf61.7.100
  Duration: 00:23:13.37, start: -0.001000, bitrate: 1015 kb/s
  Stream #0:0: Video: hevc (Main 10), yuv420p10le(tv, bt709, progressive), 1920x1080 [SAR 1:1 DAR 16:9], 23.98 fps, 23.98 tbr, 1k tbn (default)
      Metadata:
        HANDLER_NAME    : VideoHandler
        VENDOR_ID       : [0][0][0][0]
        ENCODER         : Lavc61.19.100 libx265
        BPS             : 818250
        DURATION        : 00:23:12.223708333
        NUMBER_OF_FRAMES: 33381
        NUMBER_OF_BYTES : 142398448
        _STATISTICS_WRITING_APP: mkvpropedit v66.0.0 ('Josie') 64-bit
        _STATISTICS_WRITING_DATE_UTC: 2025-04-29 16:50:45
        _STATISTICS_TAGS: BPS DURATION NUMBER_OF_FRAMES NUMBER_OF_BYTES
  Stream #0:1(eng): Audio: aac (LC), 48000 Hz, stereo, fltp (default)
      Metadata:
        HANDLER_NAME    : SoundHandler
        VENDOR_ID       : [0][0][0][0]
        ENCODER         : Lavc61.19.100 aac
        BPS             : 193663
        DURATION        : 00:23:13.325000000
        NUMBER_OF_FRAMES: 65313
        NUMBER_OF_BYTES : 33729508
        _STATISTICS_WRITING_APP: mkvpropedit v66.0.0 ('Josie') 64-bit
        _STATISTICS_WRITING_DATE_UTC: 2025-04-29 16:50:45
        _STATISTICS_TAGS: BPS DURATION NUMBER_OF_FRAMES NUMBER_OF_BYTES
Input #1, mov,mp4,m4a,3gp,3g2,mj2, from 'G:\Аниме\Онгоинги\!_35_Лето_2024\JamClub\Моя сэмпай - парень\JamClub_Senpai_wa_Otokonoko_09_1080p.mp4':
  Metadata:
    major_brand     : isom
    minor_version   : 512
    compatible_brands: isomiso2avc1mp41
    encoder         : Lavf60.16.100
  Duration: 00:23:13.35, start: 0.000000, bitrate: 3987 kb/s
  Stream #1:0[0x1](und): Video: h264 (High) (avc1 / 0x31637661), yuv420p(progressive), 1920x1080 [SAR 1:1 DAR 16:9], 3792 kb/s, 23.98 fps, 23.98 tbr, 90k tbn (default)
      Metadata:
        handler_name    : VideoHandler
        vendor_id       : [0][0][0][0]
  Stream #1:1[0x2](eng): Audio: aac (LC) (mp4a / 0x6134706D), 48000 Hz, stereo, fltp, 191 kb/s (default)
      Metadata:
        handler_name    : SoundHandler
        vendor_id       : [0][0][0][0]
Stream mapping:
  Stream #0:0 (hevc) -> settb:default
  Stream #1:0 (h264) -> settb:default
  psnr:default -> Stream #0:0 (wrapped_avframe)
  Stream #0:1 -> #0:1 (aac (native) -> pcm_s16le (native))
Output #0, null, to 'pipe:':
  Metadata:
    COMPATIBLE_BRANDS: isomiso2avc1mp41
    MAJOR_BRAND     : isom
    MINOR_VERSION   : 512
    encoder         : Lavf61.7.100
  Stream #0:0: Video: wrapped_avframe, yuv420p10le(tv, bt709, progressive), 1920x1080 [SAR 1:1 DAR 16:9], q=2-31, 200 kb/s, 23.98 fps, 23.98 tbn
      Metadata:
        encoder         : Lavc61.19.100 wrapped_avframe
  Stream #0:1(eng): Audio: pcm_s16le, 48000 Hz, stereo, s16, 1536 kb/s (default)
      Metadata:
        HANDLER_NAME    : SoundHandler
        VENDOR_ID       : [0][0][0][0]
        _STATISTICS_TAGS: BPS DURATION NUMBER_OF_FRAMES NUMBER_OF_BYTES
        BPS             : 193663
        DURATION        : 00:23:13.325000000
        NUMBER_OF_FRAMES: 65313
        NUMBER_OF_BYTES : 33729508
        _STATISTICS_WRITING_APP: mkvpropedit v66.0.0 ('Josie') 64-bit
        _STATISTICS_WRITING_DATE_UTC: 2025-04-29 16:50:45
        encoder         : Lavc61.19.100 pcm_s16le
frame=  111 fps=0.0 q=-0.0 size=N/A time=00:00:04.62 bitrate=N/A speed=9.13x    frame=  269 fps=261 q=-0.0 size=N/A time=00:00:11.21 bitrate=N/A speed=10.9x    frame=  457 fps=296 q=-0.0 size=N/A time=00:00:19.06 bitrate=N/A speed=12.4x    frame=  687 fps=333 q=-0.0 size=N/A time=00:00:28.65 bitrate=N/A speed=13.9x    frame=  929 fps=361 q=-0.0 size=N/A time=00:00:38.74 bitrate=N/A speed=15.1x    frame= 1178 fps=380 q=-0.0 size=N/A time=00:00:49.13 bitrate=N/A speed=15.9x    frame= 1409 fps=391 q=-0.0 size=N/A time=00:00:58.76 bitrate=N/A speed=16.3x    frame= 1625 fps=394 q=-0.0 size=N/A time=00:01:07.77 bitrate=N/A speed=16.4x    frame= 1803 fps=389 q=-0.0 size=N/A time=00:01:15.20 bitrate=N/A speed=16.2x    frame= 2042 fps=396 q=-0.0 size=N/A time=00:01:25.16 bitrate=N/A speed=16.5x    frame= 2301 fps=406 q=-0.0 size=N/A time=00:01:35.97 bitrate=N/A speed=  17x    frame= 2579 fps=417 q=-0.0 size=N/A time=00:01:47.56 bitrate=N/A speed=17.4x    frame= 2820 fps=421 q=-0.0 size=N/A time=00:01:57.61 bitrate=N/A speed=17.6x    frame= 3079 fps=427 q=-0.0 size=N/A time=00:02:08.41 bitrate=N/A speed=17.8x    frame= 3326 fps=430 q=-0.0 size=N/A time=00:02:18.72 bitrate=N/A speed=  18x    frame= 3593 fps=435 q=-0.0 size=N/A time=00:02:29.85 bitrate=N/A speed=18.2x    frame= 3814 fps=436 q=-0.0 size=N/A time=00:02:39.07 bitrate=N/A speed=18.2x    frame= 4041 fps=435 q=-0.0 size=N/A time=00:02:48.54 bitrate=N/A speed=18.2x    frame= 4251 fps=434 q=-0.0 size=N/A time=00:02:57.30 bitrate=N/A speed=18.1x    frame= 4428 fps=429 q=-0.0 size=N/A time=00:03:04.68 bitrate=N/A speed=17.9x    frame= 4658 fps=430 q=-0.0 size=N/A time=00:03:14.27 bitrate=N/A speed=17.9x    frame= 4861 fps=429 q=-0.0 size=N/A time=00:03:22.74 bitrate=N/A speed=17.9x    frame= 5100 fps=430 q=-0.0 size=N/A time=00:03:32.71 bitrate=N/A speed=17.9x    frame= 5312 fps=429 q=-0.0 size=N/A time=00:03:41.55 bitrate=N/A speed=17.9x    frame= 5538 fps=430 q=-0.0 size=N/A time=00:03:50.98 bitrate=N/A speed=17.9x    frame= 5767 fps=430 q=-0.0 size=N/A time=00:04:00.53 bitrate=N/A speed=17.9x    frame= 6009 fps=432 q=-0.0 size=N/A time=00:04:10.62 bitrate=N/A speed=  18x    frame= 6236 fps=432 q=-0.0 size=N/A time=00:04:20.09 bitrate=N/A speed=  18x    frame= 6477 fps=433 q=-0.0 size=N/A time=00:04:30.14 bitrate=N/A speed=18.1x    frame= 6655 fps=430 q=-0.0 size=N/A time=00:04:37.56 bitrate=N/A speed=17.9x    frame= 6824 fps=427 q=-0.0 size=N/A time=00:04:44.61 bitrate=N/A speed=17.8x    frame= 7019 fps=426 q=-0.0 size=N/A time=00:04:52.75 bitrate=N/A speed=17.7x    frame= 7262 fps=427 q=-0.0 size=N/A time=00:05:02.88 bitrate=N/A speed=17.8x    frame= 7493 fps=428 q=-0.0 size=N/A time=00:05:12.52 bitrate=N/A speed=17.8x    frame= 7749 fps=430 q=-0.0 size=N/A time=00:05:23.19 bitrate=N/A speed=17.9x    frame= 8012 fps=432 q=-0.0 size=N/A time=00:05:34.16 bitrate=N/A speed=  18x    frame= 8263 fps=433 q=-0.0 size=N/A time=00:05:44.63 bitrate=N/A speed=18.1x    frame= 8528 fps=435 q=-0.0 size=N/A time=00:05:55.68 bitrate=N/A speed=18.2x    frame= 8765 fps=436 q=-0.0 size=N/A time=00:06:05.57 bitrate=N/A speed=18.2x    frame= 9027 fps=438 q=-0.0 size=N/A time=00:06:16.50 bitrate=N/A speed=18.3x    frame= 9273 fps=439 q=-0.0 size=N/A time=00:06:26.76 bitrate=N/A speed=18.3x    frame= 9531 fps=440 q=-0.0 size=N/A time=00:06:37.52 bitrate=N/A speed=18.4x    frame= 9732 fps=439 q=-0.0 size=N/A time=00:06:45.90 bitrate=N/A speed=18.3x    frame= 9957 fps=439 q=-0.0 size=N/A time=00:06:55.28 bitrate=N/A speed=18.3x    frame=10196 fps=440 q=-0.0 size=N/A time=00:07:05.25 bitrate=N/A speed=18.3x    frame=10435 fps=440 q=-0.0 size=N/A time=00:07:15.22 bitrate=N/A speed=18.3x    frame=10658 fps=440 q=-0.0 size=N/A time=00:07:24.52 bitrate=N/A speed=18.3x    frame=10856 fps=439 q=-0.0 size=N/A time=00:07:32.78 bitrate=N/A speed=18.3x    frame=11095 fps=439 q=-0.0 size=N/A time=00:07:42.75 bitrate=N/A speed=18.3x    frame=11357 fps=440 q=-0.0 size=N/A time=00:07:53.68 bitrate=N/A speed=18.4x    frame=11596 fps=441 q=-0.0 size=N/A time=00:08:03.64 bitrate=N/A speed=18.4x    frame=11851 fps=442 q=-0.0 size=N/A time=00:08:14.28 bitrate=N/A speed=18.4x    frame=12059 fps=441 q=-0.0 size=N/A time=00:08:22.96 bitrate=N/A speed=18.4x    frame=12329 fps=443 q=-0.0 size=N/A time=00:08:34.22 bitrate=N/A speed=18.5x    frame=12578 fps=443 q=-0.0 size=N/A time=00:08:44.60 bitrate=N/A speed=18.5x    frame=12838 fps=444 q=-0.0 size=N/A time=00:08:55.45 bitrate=N/A speed=18.5x    frame=13093 fps=445 q=-0.0 size=N/A time=00:09:06.08 bitrate=N/A speed=18.6x    frame=13346 fps=446 q=-0.0 size=N/A time=00:09:16.63 bitrate=N/A speed=18.6x    frame=13585 fps=446 q=-0.0 size=N/A time=00:09:26.60 bitrate=N/A speed=18.6x    frame=13819 fps=447 q=-0.0 size=N/A time=00:09:36.36 bitrate=N/A speed=18.6x    frame=14075 fps=447 q=-0.0 size=N/A time=00:09:47.04 bitrate=N/A speed=18.7x    frame=14312 fps=447 q=-0.0 size=N/A time=00:09:56.92 bitrate=N/A speed=18.7x    frame=14562 fps=448 q=-0.0 size=N/A time=00:10:07.35 bitrate=N/A speed=18.7x    frame=14811 fps=448 q=-0.0 size=N/A time=00:10:17.74 bitrate=N/A speed=18.7x    frame=15068 fps=449 q=-0.0 size=N/A time=00:10:28.46 bitrate=N/A speed=18.7x    frame=15320 fps=450 q=-0.0 size=N/A time=00:10:38.97 bitrate=N/A speed=18.8x    frame=15537 fps=449 q=-0.0 size=N/A time=00:10:48.02 bitrate=N/A speed=18.7x    frame=15767 fps=449 q=-0.0 size=N/A time=00:10:57.61 bitrate=N/A speed=18.7x    frame=16003 fps=450 q=-0.0 size=N/A time=00:11:07.45 bitrate=N/A speed=18.7x    frame=16255 fps=450 q=-0.0 size=N/A time=00:11:17.96 bitrate=N/A speed=18.8x    frame=16501 fps=450 q=-0.0 size=N/A time=00:11:28.22 bitrate=N/A speed=18.8x    frame=16753 fps=451 q=-0.0 size=N/A time=00:11:38.73 bitrate=N/A speed=18.8x    frame=16980 fps=451 q=-0.0 size=N/A time=00:11:48.20 bitrate=N/A speed=18.8x    frame=17214 fps=451 q=-0.0 size=N/A time=00:11:57.96 bitrate=N/A speed=18.8x    frame=17449 fps=451 q=-0.0 size=N/A time=00:12:07.76 bitrate=N/A speed=18.8x    frame=17712 fps=451 q=-0.0 size=N/A time=00:12:18.73 bitrate=N/A speed=18.8x    frame=17952 fps=452 q=-0.0 size=N/A time=00:12:28.74 bitrate=N/A speed=18.8x    frame=18179 fps=451 q=-0.0 size=N/A time=00:12:38.21 bitrate=N/A speed=18.8x    frame=18403 fps=451 q=-0.0 size=N/A time=00:12:47.55 bitrate=N/A speed=18.8x    frame=18643 fps=451 q=-0.0 size=N/A time=00:12:57.56 bitrate=N/A speed=18.8x    frame=18847 fps=451 q=-0.0 size=N/A time=00:13:06.07 bitrate=N/A speed=18.8x    frame=19075 fps=451 q=-0.0 size=N/A time=00:13:15.58 bitrate=N/A speed=18.8x    frame=19324 fps=451 q=-0.0 size=N/A time=00:13:25.97 bitrate=N/A speed=18.8x    frame=19578 fps=451 q=-0.0 size=N/A time=00:13:36.56 bitrate=N/A speed=18.8x    frame=19812 fps=451 q=-0.0 size=N/A time=00:13:46.32 bitrate=N/A speed=18.8x    frame=20064 fps=452 q=-0.0 size=N/A time=00:13:56.83 bitrate=N/A speed=18.8x    frame=20296 fps=452 q=-0.0 size=N/A time=00:14:06.51 bitrate=N/A speed=18.8x    frame=20540 fps=452 q=-0.0 size=N/A time=00:14:16.68 bitrate=N/A speed=18.9x    frame=20778 fps=452 q=-0.0 size=N/A time=00:14:26.61 bitrate=N/A speed=18.9x    frame=21022 fps=452 q=-0.0 size=N/A time=00:14:36.79 bitrate=N/A speed=18.9x    frame=21272 fps=453 q=-0.0 size=N/A time=00:14:47.21 bitrate=N/A speed=18.9x    frame=21535 fps=453 q=-0.0 size=N/A time=00:14:58.18 bitrate=N/A speed=18.9x    frame=21792 fps=454 q=-0.0 size=N/A time=00:15:08.90 bitrate=N/A speed=18.9x    frame=22059 fps=455 q=-0.0 size=N/A time=00:15:20.04 bitrate=N/A speed=  19x    frame=22303 fps=455 q=-0.0 size=N/A time=00:15:30.22 bitrate=N/A speed=  19x    frame=22572 fps=455 q=-0.0 size=N/A time=00:15:41.44 bitrate=N/A speed=  19x    frame=22823 fps=456 q=-0.0 size=N/A time=00:15:51.90 bitrate=N/A speed=  19x    frame=23093 fps=456 q=-0.0 size=N/A time=00:16:03.17 bitrate=N/A speed=  19x    frame=23342 fps=457 q=-0.0 size=N/A time=00:16:13.55 bitrate=N/A speed=19.1x    frame=23597 fps=457 q=-0.0 size=N/A time=00:16:24.19 bitrate=N/A speed=19.1x    frame=23856 fps=458 q=-0.0 size=N/A time=00:16:34.99 bitrate=N/A speed=19.1x    frame=24117 fps=458 q=-0.0 size=N/A time=00:16:45.87 bitrate=N/A speed=19.1x    frame=24373 fps=458 q=-0.0 size=N/A time=00:16:56.55 bitrate=N/A speed=19.1x    frame=24632 fps=459 q=-0.0 size=N/A time=00:17:07.35 bitrate=N/A speed=19.1x    frame=24897 fps=459 q=-0.0 size=N/A time=00:17:18.41 bitrate=N/A speed=19.2x    frame=25154 fps=460 q=-0.0 size=N/A time=00:17:29.13 bitrate=N/A speed=19.2x    frame=25393 fps=460 q=-0.0 size=N/A time=00:17:39.09 bitrate=N/A speed=19.2x    frame=25656 fps=460 q=-0.0 size=N/A time=00:17:50.06 bitrate=N/A speed=19.2x    frame=25908 fps=461 q=-0.0 size=N/A time=00:18:00.57 bitrate=N/A speed=19.2x    frame=26146 fps=461 q=-0.0 size=N/A time=00:18:10.50 bitrate=N/A speed=19.2x    frame=26398 fps=461 q=-0.0 size=N/A time=00:18:21.01 bitrate=N/A speed=19.2x    frame=26654 fps=461 q=-0.0 size=N/A time=00:18:31.69 bitrate=N/A speed=19.2x    frame=26914 fps=461 q=-0.0 size=N/A time=00:18:42.53 bitrate=N/A speed=19.2x    frame=27150 fps=461 q=-0.0 size=N/A time=00:18:52.38 bitrate=N/A speed=19.2x    frame=27399 fps=462 q=-0.0 size=N/A time=00:19:02.76 bitrate=N/A speed=19.3x    frame=27655 fps=462 q=-0.0 size=N/A time=00:19:13.44 bitrate=N/A speed=19.3x    frame=27938 fps=463 q=-0.0 size=N/A time=00:19:25.24 bitrate=N/A speed=19.3x    frame=28201 fps=463 q=-0.0 size=N/A time=00:19:36.21 bitrate=N/A speed=19.3x    frame=28479 fps=464 q=-0.0 size=N/A time=00:19:47.81 bitrate=N/A speed=19.3x    frame=28713 fps=464 q=-0.0 size=N/A time=00:19:57.57 bitrate=N/A speed=19.3x    frame=28948 fps=464 q=-0.0 size=N/A time=00:20:07.37 bitrate=N/A speed=19.3x    frame=29214 fps=464 q=-0.0 size=N/A time=00:20:18.46 bitrate=N/A speed=19.4x    frame=29486 fps=464 q=-0.0 size=N/A time=00:20:29.81 bitrate=N/A speed=19.4x    frame=29689 fps=464 q=-0.0 size=N/A time=00:20:38.27 bitrate=N/A speed=19.3x    frame=29934 fps=464 q=-0.0 size=N/A time=00:20:48.49 bitrate=N/A speed=19.4x    frame=30184 fps=464 q=-0.0 size=N/A time=00:20:58.92 bitrate=N/A speed=19.4x    frame=30450 fps=465 q=-0.0 size=N/A time=00:21:10.01 bitrate=N/A speed=19.4x    frame=30712 fps=465 q=-0.0 size=N/A time=00:21:20.94 bitrate=N/A speed=19.4x    frame=30983 fps=465 q=-0.0 size=N/A time=00:21:32.24 bitrate=N/A speed=19.4x    frame=31220 fps=465 q=-0.0 size=N/A time=00:21:42.13 bitrate=N/A speed=19.4x    frame=31462 fps=465 q=-0.0 size=N/A time=00:21:52.22 bitrate=N/A speed=19.4x    frame=31652 fps=465 q=-0.0 size=N/A time=00:22:00.15 bitrate=N/A speed=19.4x    frame=31887 fps=465 q=-0.0 size=N/A time=00:22:09.95 bitrate=N/A speed=19.4x    frame=32049 fps=463 q=-0.0 size=N/A time=00:22:16.71 bitrate=N/A speed=19.3x    frame=32238 fps=463 q=-0.0 size=N/A time=00:22:24.59 bitrate=N/A speed=19.3x    frame=32492 fps=463 q=-0.0 size=N/A time=00:22:35.18 bitrate=N/A speed=19.3x    frame=32756 fps=463 q=-0.0 size=N/A time=00:22:46.19 bitrate=N/A speed=19.3x    frame=33002 fps=463 q=-0.0 size=N/A time=00:22:56.45 bitrate=N/A speed=19.3x    frame=33259 fps=464 q=-0.0 size=N/A time=00:23:07.17 bitrate=N/A speed=19.3x    [Parsed_psnr_10 @ 0000015a2d310e40] PSNR y:48.679060 u:51.469126 v:51.310259 average:49.409108 min:37.702043 max:inf
[out#0/null @ 0000015a25634e80] video:14343KiB audio:261252KiB subtitle:0KiB other streams:0KiB global headers:0KiB muxing overhead: unknown
frame=33380 fps=464 q=-0.0 Lsize=N/A time=00:23:12.22 bitrate=N/A speed=19.4x    
